<?xml version="1.0" encoding="UTF-8"?>
<svg width="752pt" height="752pt" version="1.1" viewBox="0 0 752 752" xmlns="http://www.w3.org/2000/svg">
 <g>
  <path d="m376 527.14c68.105 0 123.51-50.062 123.51-111.61 0-3.2383-1.3906-6.1328-3.5859-8.1797-2.0508-2.6797-5.2461-4.4375-8.8828-4.4375h-222.08c-3.6367 0-6.832 1.7578-8.8828 4.4375-2.1914 2.0469-3.5859 4.9453-3.5859 8.1797 0 61.543 55.402 111.61 123.51 111.61zm100.45-101.79c-5.5547 44.566-48.477 79.359-100.45 79.359s-94.895-34.789-100.45-79.359z"/>
  <path d="m276.59 324.26c6.1953 0 11.215-5.0195 11.215-11.215 0-7.8906 6.418-14.309 14.309-14.309s14.309 6.418 14.312 14.309c0 6.1953 5.0195 11.215 11.215 11.215 6.1953 0 11.215-5.0195 11.215-11.215 0-20.262-16.48-36.742-36.742-36.742s-36.742 16.48-36.742 36.742c0.003906 6.1953 5.0273 11.215 11.219 11.215z"/>
  <path d="m424.37 324.26c6.1953 0 11.215-5.0195 11.215-11.215 0-7.8906 6.418-14.309 14.309-14.309s14.309 6.418 14.312 14.309c0 6.1953 5.0195 11.215 11.215 11.215s11.215-5.0195 11.215-11.215c0-20.262-16.48-36.742-36.742-36.742s-36.742 16.48-36.742 36.742c0 6.1953 5.0273 11.215 11.219 11.215z"/>
  <path d="m376 589.11c117.51 0 213.11-95.602 213.11-213.11 0-117.51-95.602-213.11-213.11-213.11-117.51 0-213.11 95.602-213.11 213.11 0 117.51 95.602 213.11 213.11 213.11zm0-403.79c105.14 0 190.68 85.539 190.68 190.68 0 105.14-85.539 190.68-190.68 190.68-105.14 0-190.68-85.539-190.68-190.68 0-105.14 85.539-190.68 190.68-190.68z"/>
 </g>
</svg>
