<?xml version="1.0" encoding="UTF-8"?>
<svg width="752pt" height="752pt" version="1.1" viewBox="0 0 752 752" xmlns="http://www.w3.org/2000/svg">
 <g>
  <path d="m376 162.89c-117.51 0-213.11 95.602-213.11 213.11s95.602 213.11 213.11 213.11c117.51 0 213.11-95.602 213.11-213.11-0.003907-117.51-95.605-213.11-213.12-213.11zm0 402.54c-104.45 0-189.43-84.98-189.43-189.43s84.98-189.43 189.43-189.43 189.43 84.98 189.43 189.43-84.98 189.43-189.43 189.43z"/>
  <path d="m487.02 336.21c0 14.863-12.051 26.914-26.914 26.914s-26.914-12.051-26.914-26.914c0-14.863 12.051-26.914 26.914-26.914s26.914 12.051 26.914 26.914"/>
  <path d="m318.81 336.21c0 14.863-12.051 26.914-26.914 26.914-14.863 0-26.914-12.051-26.914-26.914 0-14.863 12.051-26.914 26.914-26.914 14.863 0 26.914 12.051 26.914 26.914"/>
  <path d="m284.02 450.26c-4.8828 4.3516-5.3125 11.836-0.96094 16.719 4.3516 4.8828 11.836 5.3125 16.711 0.96094 42.742-38.098 109.71-38.098 152.45 0 2.2578 2.0117 5.0664 3.0039 7.8711 3.0039 3.2578 0 6.5039-1.3359 8.8398-3.9609 4.3516-4.8828 3.9219-12.363-0.96094-16.719-51.57-45.977-132.37-45.977-183.95-0.003907z"/>
  <path d="m310.01 402.02c0-14.855-18.109-31.414-18.113-31.418 0 0-18.113 16.562-18.113 31.418 0 11.902 8.1133 21.547 18.113 21.547 10.008 0 18.113-9.6445 18.113-21.547z"/>
 </g>
</svg>
